<svg width="21" height="21" viewBox="0 0 21 21" fill="none" xmlns="http://www.w3.org/2000/svg">
<path d="M1 3V20H20" stroke="white" stroke-miterlimit="10" stroke-linecap="round" stroke-linejoin="round"/>
<path d="M12.8994 13.346L17.1802 9.06922V9.06519" stroke="white" stroke-miterlimit="10" stroke-linecap="round" stroke-linejoin="round"/>
<path d="M18.0362 9.42308C18.7054 9.42308 19.2478 8.88065 19.2478 8.21154C19.2478 7.54242 18.7054 7 18.0362 7C17.3671 7 16.8247 7.54242 16.8247 8.21154C16.8247 8.88065 17.3671 9.42308 18.0362 9.42308Z" stroke="white" stroke-miterlimit="10" stroke-linecap="round" stroke-linejoin="round"/>
<path d="M5.43827 11.5489L1 15.9872M11.0033 13.5641L7.32827 11.3227M7.50758 10.6927C7.50758 11.0239 7.37027 11.3308 7.15219 11.5489C7.0399 11.6616 6.90647 11.751 6.75955 11.812C6.61263 11.873 6.45512 11.9044 6.29604 11.9044C6.13696 11.9044 5.97944 11.873 5.83253 11.812C5.68561 11.751 5.55218 11.6616 5.43988 11.5489C5.32681 11.4369 5.23715 11.3035 5.17614 11.1565C5.11513 11.0095 5.08397 10.8519 5.0845 10.6927C5.0845 10.0224 5.62565 9.4812 6.29604 9.4812C6.96238 9.4812 7.50758 10.0224 7.50758 10.6927ZM13.2466 14.1941C13.2466 14.8645 12.7014 15.4056 12.0351 15.4056C11.7967 15.4062 11.5635 15.3364 11.3647 15.2049C11.1659 15.0734 11.0103 14.8861 10.9176 14.6665C10.8248 14.4469 10.799 14.2048 10.8433 13.9706C10.8877 13.7364 11.0002 13.5205 11.1668 13.35C11.2792 13.234 11.4136 13.1416 11.5623 13.0784C11.7109 13.0152 11.8707 12.9825 12.0322 12.9821C12.1937 12.9817 12.3537 13.0137 12.5026 13.0762C12.6516 13.1387 12.7865 13.2305 12.8993 13.346C13.1134 13.5641 13.2466 13.8629 13.2466 14.1941Z" stroke="white" stroke-miterlimit="10" stroke-linecap="round" stroke-linejoin="round"/>
</svg>
