<svg width="78" height="78" viewBox="0 0 78 78" fill="none" xmlns="http://www.w3.org/2000/svg">
<circle cx="38.9999" cy="38.9999" r="18.9091" fill="#7EE8F6"/>
<circle opacity="0.5" cx="39.0002" cy="39" r="22.7424" stroke="#4CA7E8"/>
<circle opacity="0.25" cx="38.9998" cy="39.0001" r="29.8333" stroke="#4CA7E8"/>
<circle opacity="0.1" cx="39" cy="39" r="38.5" stroke="#4CA7E8"/>
<path d="M38.9999 33.3864C37.9664 33.3864 37.1287 34.2242 37.1287 35.2576V38.3763C37.1287 39.4097 37.9664 40.2475 38.9999 40.2475C40.0333 40.2475 40.8711 39.4097 40.8711 38.3763V35.2576C40.8711 34.2242 40.0333 33.3864 38.9999 33.3864ZM39.6236 43.9557V44.9255C39.6236 45.27 39.3443 45.5493 38.9999 45.5493C38.6554 45.5493 38.3761 45.27 38.3761 44.9255V43.9557C35.5693 43.6454 33.3862 41.2658 33.3862 38.3763C33.3862 38.0318 33.6655 37.7526 34.01 37.7526C34.3544 37.7526 34.6337 38.0318 34.6337 38.3763C34.6337 40.7877 36.5885 42.7425 38.9999 42.7425C41.4112 42.7425 43.366 40.7877 43.366 38.3763C43.366 38.0318 43.6453 37.7526 43.9898 37.7526C44.3342 37.7526 44.6135 38.0318 44.6135 38.3763C44.6135 41.2658 42.4304 43.6454 39.6236 43.9557ZM38.9999 32.1389C40.7223 32.1389 42.1186 33.5352 42.1186 35.2576V38.3763C42.1186 40.0987 40.7223 41.495 38.9999 41.495C37.2775 41.495 35.8812 40.0987 35.8812 38.3763V35.2576C35.8812 33.5352 37.2775 32.1389 38.9999 32.1389Z" fill="#010101"/>
</svg>
