<svg width="19" height="20" viewBox="0 0 19 20" fill="none" xmlns="http://www.w3.org/2000/svg">
<path d="M18.4975 12.2164C18.3058 11.9201 18.0333 11.6238 17.68 11.4362C17.3974 11.2979 17.2158 11.0708 17.0543 10.8041C16.5396 9.95483 16.8423 8.83886 17.7002 8.33519C18.7095 7.77227 19.0325 6.51804 18.4471 5.54034L17.7709 4.37499C17.1956 3.39728 15.934 3.05163 14.9348 3.62443C14.0467 4.09847 12.9062 3.78244 12.3915 2.94299C12.23 2.66647 12.1392 2.3702 12.1593 2.07392C12.1896 1.68877 12.0685 1.32336 11.8868 1.02709C11.5134 0.414784 10.8372 0 10.0904 0H8.66728C7.93052 0.0197516 7.25431 0.414784 6.88088 1.02709C6.68912 1.32336 6.5781 1.68877 6.59829 2.07392C6.61847 2.3702 6.52764 2.66647 6.36616 2.94299C5.85143 3.78244 4.71096 4.09847 3.8329 3.62443C2.82363 3.05163 1.57214 3.39728 0.986763 4.37499L0.310554 5.54034C-0.264728 6.51804 0.0582373 7.77227 1.05741 8.33519C1.91529 8.83886 2.21807 9.95483 1.71344 10.8041C1.54186 11.0708 1.36019 11.2979 1.0776 11.4362C0.734446 11.6238 0.431666 11.9201 0.270183 12.2164C-0.103245 12.8287 -0.08306 13.599 0.290369 14.2409L0.986763 15.426C1.36019 16.0581 2.05659 16.4531 2.78326 16.4531C3.12641 16.4531 3.53012 16.3544 3.85308 16.1568C4.1054 15.989 4.40818 15.9297 4.74124 15.9297C5.74041 15.9297 6.5781 16.7494 6.59829 17.7271C6.59829 18.8628 7.52681 19.7516 8.69756 19.7516H10.0702C11.2308 19.7516 12.1593 18.8628 12.1593 17.7271C12.1896 16.7494 13.0273 15.9297 14.0265 15.9297C14.3495 15.9297 14.6522 15.989 14.9146 16.1568C15.2376 16.3544 15.6312 16.4531 15.9845 16.4531C16.701 16.4531 17.3974 16.0581 17.7709 15.426L18.4774 14.2409C18.8407 13.5793 18.871 12.8287 18.4975 12.2164Z" fill="white"/>
<path d="M9.39415 12.6711C7.8096 12.6711 6.52783 11.4367 6.52783 9.88617C6.52783 8.33566 7.8096 7.09131 9.39415 7.09131C10.9787 7.09131 12.2302 8.33566 12.2302 9.88617C12.2302 11.4367 10.9787 12.6711 9.39415 12.6711Z" fill="#182542"/>
</svg>
